<mxfile host="app.diagrams.net" modified="2023-07-31T16:08:55.324Z" agent="Mozilla/5.0 (X11; Ubuntu; Linux x86_64; rv:109.0) Gecko/20100101 Firefox/115.0" etag="mQJftpYThougXZS07hgD" version="21.6.6" type="device">
  <diagram name="Page-1" id="aG-cqgmI1vYUuYh3gFLT">
    <mxGraphModel dx="906" dy="534" grid="1" gridSize="10" guides="1" tooltips="1" connect="1" arrows="1" fold="1" page="1" pageScale="1" pageWidth="850" pageHeight="1100" math="0" shadow="0">
      <root>
        <mxCell id="0" />
        <mxCell id="1" parent="0" />
        <mxCell id="Rge7N_FRZZkBe42Ovau4-134" value="&lt;font color=&quot;#000000&quot;&gt;&lt;b&gt;Config&lt;/b&gt;&lt;/font&gt;" style="shape=umlFrame;whiteSpace=wrap;html=1;pointerEvents=0;recursiveResize=0;container=1;collapsible=0;width=160;fillColor=#f5f5f5;fontColor=#333333;strokeColor=#000000;" vertex="1" parent="1">
          <mxGeometry x="100" y="530" width="590" height="310" as="geometry" />
        </mxCell>
        <mxCell id="Rge7N_FRZZkBe42Ovau4-137" style="edgeStyle=orthogonalEdgeStyle;rounded=0;orthogonalLoop=1;jettySize=auto;html=1;entryX=0;entryY=0.5;entryDx=0;entryDy=0;" edge="1" parent="Rge7N_FRZZkBe42Ovau4-134" source="Rge7N_FRZZkBe42Ovau4-36" target="Rge7N_FRZZkBe42Ovau4-71">
          <mxGeometry relative="1" as="geometry">
            <Array as="points">
              <mxPoint x="200" y="273" />
              <mxPoint x="200" y="249" />
            </Array>
          </mxGeometry>
        </mxCell>
        <mxCell id="Rge7N_FRZZkBe42Ovau4-36" value="Preprocess" style="swimlane;fontStyle=1;align=center;verticalAlign=middle;childLayout=stackLayout;horizontal=1;startSize=29;horizontalStack=0;resizeParent=1;resizeParentMax=0;resizeLast=0;collapsible=0;marginBottom=0;html=1;whiteSpace=wrap;fillColor=#dae8fc;strokeColor=#000000;" vertex="1" parent="Rge7N_FRZZkBe42Ovau4-134">
          <mxGeometry x="7.5" y="247" width="165" height="53" as="geometry" />
        </mxCell>
        <mxCell id="Rge7N_FRZZkBe42Ovau4-37" value="&lt;font color=&quot;#0a0a0a&quot;&gt;Tokenise, Label, Reward, ..&lt;/font&gt;" style="text;html=1;strokeColor=#000000;fillColor=#f5f5f5;align=center;verticalAlign=middle;spacingLeft=4;spacingRight=4;overflow=hidden;rotatable=0;points=[[0,0.5],[1,0.5]];portConstraint=eastwest;whiteSpace=wrap;fontColor=#333333;" vertex="1" parent="Rge7N_FRZZkBe42Ovau4-36">
          <mxGeometry y="29" width="165" height="24" as="geometry" />
        </mxCell>
        <mxCell id="Rge7N_FRZZkBe42Ovau4-119" value="&lt;font color=&quot;#000000&quot;&gt;&lt;b&gt;Experiment&lt;/b&gt;&lt;/font&gt;" style="shape=umlFrame;whiteSpace=wrap;html=1;pointerEvents=0;recursiveResize=0;container=1;collapsible=0;width=160;fillColor=#f5f5f5;fontColor=#333333;strokeColor=#000000;" vertex="1" parent="Rge7N_FRZZkBe42Ovau4-134">
          <mxGeometry x="210" y="30" width="370" height="270" as="geometry" />
        </mxCell>
        <mxCell id="Rge7N_FRZZkBe42Ovau4-103" value="&lt;b&gt;Data Module&lt;/b&gt;" style="shape=umlFrame;whiteSpace=wrap;html=1;pointerEvents=0;recursiveResize=0;container=1;collapsible=0;width=160;fillColor=#dae8fc;strokeColor=#000000;" vertex="1" parent="Rge7N_FRZZkBe42Ovau4-119">
          <mxGeometry x="35" y="150" width="300" height="110" as="geometry" />
        </mxCell>
        <mxCell id="Rge7N_FRZZkBe42Ovau4-78" value="Transform" style="swimlane;fontStyle=1;align=center;verticalAlign=middle;childLayout=stackLayout;horizontal=1;startSize=29;horizontalStack=0;resizeParent=1;resizeParentMax=0;resizeLast=0;collapsible=0;marginBottom=0;html=1;whiteSpace=wrap;fillColor=#dae8fc;strokeColor=#000000;" vertex="1" parent="Rge7N_FRZZkBe42Ovau4-103">
          <mxGeometry x="170" y="26" width="115" height="70" as="geometry" />
        </mxCell>
        <mxCell id="Rge7N_FRZZkBe42Ovau4-79" value="&lt;font color=&quot;#0d0d0d&quot;&gt;PE, Pad, Mask, ..&lt;/font&gt;" style="text;html=1;strokeColor=#000000;fillColor=#f5f5f5;align=center;verticalAlign=middle;spacingLeft=4;spacingRight=4;overflow=hidden;rotatable=0;points=[[0,0.5],[1,0.5]];portConstraint=eastwest;whiteSpace=wrap;fontColor=#333333;" vertex="1" parent="Rge7N_FRZZkBe42Ovau4-78">
          <mxGeometry y="29" width="115" height="41" as="geometry" />
        </mxCell>
        <mxCell id="Rge7N_FRZZkBe42Ovau4-122" style="edgeStyle=orthogonalEdgeStyle;rounded=0;orthogonalLoop=1;jettySize=auto;html=1;entryX=-0.01;entryY=0.345;entryDx=0;entryDy=0;entryPerimeter=0;" edge="1" parent="Rge7N_FRZZkBe42Ovau4-103" source="Rge7N_FRZZkBe42Ovau4-71" target="Rge7N_FRZZkBe42Ovau4-79">
          <mxGeometry relative="1" as="geometry" />
        </mxCell>
        <mxCell id="Rge7N_FRZZkBe42Ovau4-71" value="Data Store" style="swimlane;fontStyle=1;align=center;verticalAlign=middle;childLayout=stackLayout;horizontal=1;startSize=29;horizontalStack=0;resizeParent=1;resizeParentMax=0;resizeLast=0;collapsible=0;marginBottom=0;html=1;whiteSpace=wrap;fillColor=#dae8fc;strokeColor=#000000;" vertex="1" parent="Rge7N_FRZZkBe42Ovau4-103">
          <mxGeometry x="15" y="42" width="125" height="54" as="geometry" />
        </mxCell>
        <mxCell id="Rge7N_FRZZkBe42Ovau4-72" value="&lt;font color=&quot;#000000&quot;&gt;MongoDB, Disk&lt;/font&gt;" style="text;html=1;strokeColor=#000000;fillColor=#f5f5f5;align=center;verticalAlign=middle;spacingLeft=4;spacingRight=4;overflow=hidden;rotatable=0;points=[[0,0.5],[1,0.5]];portConstraint=eastwest;whiteSpace=wrap;fontColor=#333333;" vertex="1" parent="Rge7N_FRZZkBe42Ovau4-71">
          <mxGeometry y="29" width="125" height="25" as="geometry" />
        </mxCell>
        <mxCell id="Rge7N_FRZZkBe42Ovau4-104" value="&lt;b&gt;Model&lt;/b&gt;" style="shape=umlFrame;whiteSpace=wrap;html=1;pointerEvents=0;recursiveResize=0;container=1;collapsible=0;width=160;fillColor=#f8cecc;strokeColor=#000000;" vertex="1" parent="Rge7N_FRZZkBe42Ovau4-119">
          <mxGeometry x="10" y="37.5" width="170" height="100" as="geometry" />
        </mxCell>
        <mxCell id="Rge7N_FRZZkBe42Ovau4-109" value="Architecture" style="swimlane;fontStyle=1;align=center;verticalAlign=middle;childLayout=stackLayout;horizontal=1;startSize=29;horizontalStack=0;resizeParent=1;resizeParentMax=0;resizeLast=0;collapsible=0;marginBottom=0;html=1;whiteSpace=wrap;fillColor=#f8cecc;strokeColor=#000000;" vertex="1" parent="Rge7N_FRZZkBe42Ovau4-104">
          <mxGeometry x="7.5" y="40" width="155" height="54" as="geometry" />
        </mxCell>
        <mxCell id="Rge7N_FRZZkBe42Ovau4-110" value="&lt;font color=&quot;#000000&quot;&gt;TacticZero, GNN, ..&lt;/font&gt;" style="text;html=1;strokeColor=#000000;fillColor=#f5f5f5;align=center;verticalAlign=middle;spacingLeft=4;spacingRight=4;overflow=hidden;rotatable=0;points=[[0,0.5],[1,0.5]];portConstraint=eastwest;whiteSpace=wrap;fontColor=#333333;" vertex="1" parent="Rge7N_FRZZkBe42Ovau4-109">
          <mxGeometry y="29" width="155" height="25" as="geometry" />
        </mxCell>
        <mxCell id="Rge7N_FRZZkBe42Ovau4-114" value="&lt;b&gt;Environment&lt;/b&gt;" style="shape=umlFrame;whiteSpace=wrap;html=1;pointerEvents=0;recursiveResize=0;container=1;collapsible=0;width=160;fillColor=#d5e8d4;strokeColor=#000000;" vertex="1" parent="Rge7N_FRZZkBe42Ovau4-119">
          <mxGeometry x="190" y="37.5" width="170" height="100" as="geometry" />
        </mxCell>
        <mxCell id="Rge7N_FRZZkBe42Ovau4-115" value="ITP " style="swimlane;fontStyle=1;align=center;verticalAlign=middle;childLayout=stackLayout;horizontal=1;startSize=29;horizontalStack=0;resizeParent=1;resizeParentMax=0;resizeLast=0;collapsible=0;marginBottom=0;html=1;whiteSpace=wrap;fillColor=#d5e8d4;strokeColor=#000000;" vertex="1" parent="Rge7N_FRZZkBe42Ovau4-114">
          <mxGeometry x="7.5" y="40" width="155" height="54" as="geometry" />
        </mxCell>
        <mxCell id="Rge7N_FRZZkBe42Ovau4-116" value="&lt;font color=&quot;#0d0d0d&quot;&gt;HOL Light, Lean, HOL4, ..&lt;/font&gt;" style="text;html=1;strokeColor=#000000;fillColor=#f5f5f5;align=center;verticalAlign=middle;spacingLeft=4;spacingRight=4;overflow=hidden;rotatable=0;points=[[0,0.5],[1,0.5]];portConstraint=eastwest;whiteSpace=wrap;fontColor=#333333;" vertex="1" parent="Rge7N_FRZZkBe42Ovau4-115">
          <mxGeometry y="29" width="155" height="25" as="geometry" />
        </mxCell>
        <mxCell id="Rge7N_FRZZkBe42Ovau4-32" value="Raw Data" style="swimlane;fontStyle=1;align=center;verticalAlign=middle;childLayout=stackLayout;horizontal=1;startSize=29;horizontalStack=0;resizeParent=1;resizeParentMax=0;resizeLast=0;collapsible=0;marginBottom=0;html=1;whiteSpace=wrap;fillColor=#dae8fc;strokeColor=#000000;" vertex="1" parent="Rge7N_FRZZkBe42Ovau4-134">
          <mxGeometry x="7.5" y="180" width="140" height="54" as="geometry" />
        </mxCell>
        <mxCell id="Rge7N_FRZZkBe42Ovau4-33" value="&lt;font color=&quot;#0a0a0a&quot;&gt;HOLStep, LeanStep, ..&lt;span style=&quot;white-space: pre;&quot;&gt;&#x9;&lt;/span&gt;&lt;/font&gt;" style="text;html=1;strokeColor=#000000;fillColor=#f5f5f5;align=center;verticalAlign=middle;spacingLeft=4;spacingRight=4;overflow=hidden;rotatable=0;points=[[0,0.5],[1,0.5]];portConstraint=eastwest;whiteSpace=wrap;fontColor=#333333;" vertex="1" parent="Rge7N_FRZZkBe42Ovau4-32">
          <mxGeometry y="29" width="140" height="25" as="geometry" />
        </mxCell>
        <mxCell id="Rge7N_FRZZkBe42Ovau4-143" style="edgeStyle=orthogonalEdgeStyle;rounded=0;orthogonalLoop=1;jettySize=auto;html=1;entryX=1;entryY=0.5;entryDx=0;entryDy=0;" edge="1" parent="Rge7N_FRZZkBe42Ovau4-134" source="Rge7N_FRZZkBe42Ovau4-123" target="Rge7N_FRZZkBe42Ovau4-32">
          <mxGeometry relative="1" as="geometry">
            <Array as="points">
              <mxPoint x="170" y="207" />
            </Array>
          </mxGeometry>
        </mxCell>
        <mxCell id="Rge7N_FRZZkBe42Ovau4-123" value="Log" style="swimlane;fontStyle=1;align=center;verticalAlign=middle;childLayout=stackLayout;horizontal=1;startSize=29;horizontalStack=0;resizeParent=1;resizeParentMax=0;resizeLast=0;collapsible=0;marginBottom=0;html=1;whiteSpace=wrap;fillColor=#ffe6cc;strokeColor=#000000;" vertex="1" parent="Rge7N_FRZZkBe42Ovau4-134">
          <mxGeometry x="7.5" y="110" width="170" height="60" as="geometry" />
        </mxCell>
        <mxCell id="Rge7N_FRZZkBe42Ovau4-124" value="&lt;font color=&quot;#0d0d0d&quot;&gt;Metrics, Reward, Actions, Proof Logs, ..&lt;/font&gt;" style="text;html=1;strokeColor=#000000;fillColor=#f5f5f5;align=center;verticalAlign=middle;spacingLeft=4;spacingRight=4;overflow=hidden;rotatable=0;points=[[0,0.5],[1,0.5]];portConstraint=eastwest;whiteSpace=wrap;fontColor=#333333;" vertex="1" parent="Rge7N_FRZZkBe42Ovau4-123">
          <mxGeometry y="29" width="170" height="31" as="geometry" />
        </mxCell>
        <mxCell id="Rge7N_FRZZkBe42Ovau4-125" value="Checkpoints" style="swimlane;fontStyle=1;align=center;verticalAlign=middle;childLayout=stackLayout;horizontal=1;startSize=29;horizontalStack=0;resizeParent=1;resizeParentMax=0;resizeLast=0;collapsible=0;marginBottom=0;html=1;whiteSpace=wrap;fillColor=#ffe6cc;strokeColor=#000000;" vertex="1" parent="Rge7N_FRZZkBe42Ovau4-134">
          <mxGeometry x="7.5" y="40" width="170" height="60" as="geometry" />
        </mxCell>
        <mxCell id="Rge7N_FRZZkBe42Ovau4-126" value="&lt;font color=&quot;#0a0a0a&quot;&gt;Hyperparams, weights, optimiser, metrics&lt;/font&gt;" style="text;html=1;strokeColor=#000000;fillColor=#f5f5f5;align=center;verticalAlign=middle;spacingLeft=4;spacingRight=4;overflow=hidden;rotatable=0;points=[[0,0.5],[1,0.5]];portConstraint=eastwest;whiteSpace=wrap;fontColor=#333333;" vertex="1" parent="Rge7N_FRZZkBe42Ovau4-125">
          <mxGeometry y="29" width="170" height="31" as="geometry" />
        </mxCell>
        <mxCell id="Rge7N_FRZZkBe42Ovau4-139" value="" style="endArrow=classic;html=1;rounded=0;entryX=1;entryY=0.25;entryDx=0;entryDy=0;" edge="1" parent="Rge7N_FRZZkBe42Ovau4-134" target="Rge7N_FRZZkBe42Ovau4-125">
          <mxGeometry width="50" height="50" relative="1" as="geometry">
            <mxPoint x="210" y="55" as="sourcePoint" />
            <mxPoint x="290" y="30" as="targetPoint" />
          </mxGeometry>
        </mxCell>
        <mxCell id="Rge7N_FRZZkBe42Ovau4-140" value="" style="endArrow=classic;html=1;rounded=0;entryX=1;entryY=0.25;entryDx=0;entryDy=0;exitX=0.002;exitY=0.371;exitDx=0;exitDy=0;exitPerimeter=0;" edge="1" parent="Rge7N_FRZZkBe42Ovau4-134" source="Rge7N_FRZZkBe42Ovau4-119">
          <mxGeometry width="50" height="50" relative="1" as="geometry">
            <mxPoint x="205" y="130" as="sourcePoint" />
            <mxPoint x="177.5" y="130" as="targetPoint" />
          </mxGeometry>
        </mxCell>
        <mxCell id="Rge7N_FRZZkBe42Ovau4-144" value="" style="endArrow=classic;html=1;rounded=0;entryX=1;entryY=0.25;entryDx=0;entryDy=0;" edge="1" parent="Rge7N_FRZZkBe42Ovau4-134">
          <mxGeometry width="50" height="50" relative="1" as="geometry">
            <mxPoint x="178" y="80.57142857142844" as="sourcePoint" />
            <mxPoint x="210" y="80.57142857142844" as="targetPoint" />
          </mxGeometry>
        </mxCell>
        <mxCell id="Rge7N_FRZZkBe42Ovau4-146" style="edgeStyle=orthogonalEdgeStyle;rounded=0;orthogonalLoop=1;jettySize=auto;html=1;" edge="1" parent="Rge7N_FRZZkBe42Ovau4-134" source="Rge7N_FRZZkBe42Ovau4-33">
          <mxGeometry relative="1" as="geometry">
            <mxPoint x="160" y="247" as="targetPoint" />
            <Array as="points">
              <mxPoint x="160" y="221" />
              <mxPoint x="160" y="247" />
            </Array>
          </mxGeometry>
        </mxCell>
      </root>
    </mxGraphModel>
  </diagram>
</mxfile>
